<?xml version="1.0" encoding="UTF-8" standalone="no"?>
<!-- Created with Inkscape (http://www.inkscape.org/) -->

<svg
   width="256"
   height="256"
   viewBox="0 0 67.733333 67.733333"
   version="1.1"
   id="svg5"
   xmlns:xlink="http://www.w3.org/1999/xlink"
   xmlns="http://www.w3.org/2000/svg"
   xmlns:svg="http://www.w3.org/2000/svg">
  <defs
     id="defs2">
    <rect
       x="564.61267"
       y="347.35077"
       width="40.233681"
       height="17.434595"
       id="rect7349" />
    <linearGradient
       id="linearGradient925">
      <stop
         style="stop-color:#ffd81b;stop-opacity:1;"
         offset="0"
         id="stop921" />
      <stop
         style="stop-color:#f63121;stop-opacity:1;"
         offset="0.60000002"
         id="stop923" />
    </linearGradient>
    <linearGradient
       xlink:href="#linearGradient925"
       id="linearGradient927"
       x1="0.18051115"
       y1="135.72888"
       x2="270.5676"
       y2="135.72888"
       gradientUnits="userSpaceOnUse"
       gradientTransform="matrix(0.99814893,0,0,0.99814893,0.35516208,-270.60079)" />
  </defs>
  <g
     id="layer1"
     transform="matrix(0.50008374,0,0,0.50008374,14.589168,30.200294)">
    <path
       style="fill:#fc321b;fill-opacity:1;fill-rule:nonzero;stroke:none;stroke-width:0.282053;stroke-dasharray:none;stroke-opacity:1;paint-order:normal"
       d="m 44.436813,-57.631222 c 0,0 -25.761086,17.329698 -37.6508189,36.464564 -11.112613,17.8842197 -15.852977,32.49319 -15.06033,54.87738 0.792651,22.38419 32.1022799,39.71389 43.9920129,39.71389 11.889733,0 51.125855,-12.99727 50.729535,-43.32425 -0.39633,-30.32696029 -20.60887,-36.8255903 -25.364773,-46.93458 -4.755892,-10.10899 -0.792651,-15.88556 -0.792651,-15.88556 0,0 -3.963239,0.72206 -8.719133,5.0545 -4.755892,4.33243 -5.152218,7.942784 -5.152218,7.942784 0,0 -4.519052,-9.231624 -5.548544,-16.968672 -1.585296,-11.914171 3.56692,-20.940056 3.56692,-20.940056 z"
       id="path8731" />
    <path
       style="fill:#f38916;fill-opacity:1;fill-rule:nonzero;stroke:none;stroke-width:0.291885;stroke-dasharray:none;stroke-opacity:1;paint-order:normal"
       d="m 38.095621,73.811262 c 0,0 -12.682381,-1.54658 -20.212545,-6.57294 C 10.352913,62.211962 3.2265521,54.865892 3.4172381,45.006362 3.8135591,24.514292 19.270214,18.907962 25.215078,6.3420617 c 5.392579,-11.39849 5.350382,-18.7521697 5.350382,-18.7521697 0,0 7.083967,3.9514497 9.11546,16.2390097 1.981623,11.9859203 6.935677,12.5658803 6.935677,12.5658803 0,0 -0.792647,-2.89982 0.792651,-5.21967 1.585297,-2.3198603 5.746704,-6.5729303 5.746704,-6.5729303 0,0 2.194726,12.0785303 9.51178,18.1722103 8.12466,6.76625 14.20441,18.78505 9.90812,30.73811 -5.35038,14.88575 -34.480231,20.29876 -34.480231,20.29876 z"
       id="path10890" />
    <path
       style="fill:#e6e50c;fill-opacity:1;fill-rule:nonzero;stroke:none;stroke-width:0.198465;stroke-dasharray:none;stroke-opacity:1;paint-order:normal"
       d="m 37.681766,73.231292 c 0,0 -8.623231,-1.05157 -13.743275,-4.46919 -5.120044,-3.4176 -9.965526,-8.41249 -9.835873,-15.11635 0.269474,-13.93334 13.355149,-19.29185 17.397288,-27.83588 3.666619,-7.75027 1.061818,-11.20376 1.061818,-11.20376 0,0 4.816658,2.68676 6.197946,11.04153 1.347382,8.14968 5.310318,13.37705 5.310318,13.37705 0,0 -0.538951,-1.9717 0.538953,-3.54906 1.077902,-1.57735 3.907404,-4.46918 3.907404,-4.46918 0,0 -1.480156,4.73288 3.494984,8.8762 5.524271,4.60062 12.036063,11.41941 9.11485,19.54675 -3.637925,10.12137 -23.444413,13.80189 -23.444413,13.80189 z"
       id="path10890-8" />
    <path
       style="fill:#ffffff;fill-opacity:1;fill-rule:nonzero;stroke:none;stroke-width:0.116101;stroke-dasharray:none;stroke-opacity:1;paint-order:normal"
       d="m 36.933434,72.579062 c 0,0 -5.04454,-0.61516 -8.039739,-2.61444 -2.995199,-1.99929 -5.829776,-4.92126 -5.753933,-8.84299 0.157646,-8.15093 7.812691,-11.28563 10.177324,-16.28384 2.144951,-4.53386 0.621149,-6.55413 0.621149,-6.55413 0,0 2.81772,1.57174 3.625763,6.45922 0.788212,4.76753 3.106513,7.82551 3.106513,7.82551 0,0 -0.315293,-1.15344 0.315282,-2.07618 0.630566,-0.92274 2.285806,-2.61446 2.285806,-2.61446 0,0 -0.865878,2.76872 2.044551,5.19255 3.231664,2.69133 7.041021,6.68029 5.332127,11.43474 -2.128159,5.92094 -13.714843,8.07402 -13.714843,8.07402 z"
       id="path10890-8-9" />
  </g>
</svg>
